<svg width="732" height="658" viewBox="0 0 732 658" fill="none" xmlns="http://www.w3.org/2000/svg">
<path d="M265.854 657.333L251.288 552.267C243.397 549.531 235.962 546.247 228.982 542.417C222.002 538.586 215.174 534.482 208.498 530.104L100.158 571.146L0.0125122 415.188L93.7854 351.163C93.1785 347.332 92.875 343.638 92.875 340.081V317.919C92.875 314.362 93.1785 310.668 93.7854 306.838L0.0125122 242.813L100.158 86.8542L208.498 127.896C215.174 123.518 222.154 119.414 229.438 115.583C236.721 111.753 244.004 108.469 251.288 105.733L265.854 0.666687H466.146L480.713 105.733C488.603 108.469 496.038 111.753 503.018 115.583C509.998 119.414 516.826 123.518 523.502 127.896L631.842 86.8542L731.988 242.813L638.215 306.838C638.822 310.668 639.125 314.362 639.125 317.919V340.081C639.125 343.638 638.518 347.332 637.304 351.163L731.077 415.188L630.931 571.146L523.502 530.104C516.826 534.482 509.846 538.586 502.563 542.417C495.279 546.247 487.996 549.531 480.713 552.267L466.146 657.333H265.854ZM329.583 591.667H401.506L414.252 504.658C433.067 500.281 450.517 493.851 466.601 485.369C482.685 476.887 497.404 466.626 510.756 454.588L600.888 488.242L636.394 432.425L558.098 379.071C561.133 371.41 563.257 363.338 564.471 354.856C565.685 346.374 566.292 337.756 566.292 329C566.292 320.244 565.685 311.626 564.471 303.144C563.257 294.662 561.133 286.59 558.098 278.929L636.394 225.575L600.888 169.758L510.756 204.233C497.404 191.647 482.685 181.113 466.601 172.631C450.517 164.149 433.067 157.719 414.252 153.342L402.417 66.3334H330.494L317.748 153.342C298.933 157.719 281.483 164.149 265.399 172.631C249.315 181.113 234.597 191.374 221.244 203.413L131.113 169.758L95.6063 225.575L173.902 278.108C170.867 286.317 168.743 294.525 167.529 302.733C166.315 310.942 165.708 319.697 165.708 329C165.708 337.756 166.315 346.238 167.529 354.446C168.743 362.654 170.867 370.863 173.902 379.071L95.6063 432.425L131.113 488.242L221.244 453.767C234.597 466.353 249.315 476.887 265.399 485.369C281.483 493.851 298.933 500.281 317.748 504.658L329.583 591.667ZM367.821 443.917C403.024 443.917 433.067 432.699 457.952 410.263C482.837 387.826 495.279 360.739 495.279 329C495.279 297.261 482.837 270.174 457.952 247.738C433.067 225.301 403.024 214.083 367.821 214.083C332.011 214.083 301.816 225.301 277.234 247.738C252.653 270.174 240.363 297.261 240.363 329C240.363 360.739 252.653 387.826 277.234 410.263C301.816 432.699 332.011 443.917 367.821 443.917Z" fill="white"/>
</svg>
