<?xml version="1.0" encoding="UTF-8" standalone="no"?>
<svg
   width="24"
   height="24"
   viewBox="0 0 24 24"
   fill="none"
   version="1.1"
   id="svg1"
   sodipodi:docname="icon_settings.svg"
   xmlns:inkscape="http://www.inkscape.org/namespaces/inkscape"
   xmlns:sodipodi="http://sodipodi.sourceforge.net/DTD/sodipodi-0.dtd"
   xmlns="http://www.w3.org/2000/svg"
   xmlns:svg="http://www.w3.org/2000/svg">
  <defs
     id="defs1" />
  <sodipodi:namedview
     id="namedview1"
     pagecolor="#ffffff"
     bordercolor="#666666"
     borderopacity="1.0"
     inkscape:showpageshadow="2"
     inkscape:pageopacity="0.0"
     inkscape:pagecheckerboard="0"
     inkscape:deskcolor="#d1d1d1" />
  <path
     d="M 8.7164062,24 8.2388165,20.160022 c -0.25873,-0.1 -0.5025087,-0.22002 -0.7313688,-0.36 -0.2288601,-0.140016 -0.4527365,-0.29001 -0.671629,-0.450018 L 3.2835686,20.850017 0,15.150026 3.0746239,12.810024 c -0.019899,-0.140016 -0.02985,-0.275025 -0.02985,-0.405027 v -0.809982 c 0,-0.130002 0.00995,-0.265012 0.02985,-0.404991 L 0,8.8500223 3.2835686,3.1500022 6.8358187,4.6500079 C 7.0547112,4.4899996 7.2835714,4.3400057 7.522399,4.1999893 7.7611939,4.0600096 7.9999888,3.9399851 8.2388165,3.8399891 L 8.7164062,0 H 15.283577 L 15.7612,3.8399891 c 0.258697,0.099996 0.502476,0.2200205 0.731336,0.3600002 0.22886,0.1400164 0.452736,0.2900103 0.671629,0.4500186 L 20.716415,3.1500022 24,8.8500223 20.925373,11.190024 c 0.0199,0.139979 0.02984,0.274989 0.02984,0.404991 v 0.809982 c 0,0.130002 -0.0199,0.265011 -0.05971,0.405027 l 3.074627,2.340002 -3.283585,5.699991 -3.52238,-1.500013 c -0.218893,0.160008 -0.447753,0.310002 -0.686548,0.450018 -0.238828,0.13998 -0.477622,0.260004 -0.716417,0.36 L 15.283577,24 Z m 2.0895458,-2.399977 h 2.35821 l 0.417916,-3.180026 c 0.616905,-0.159972 1.189056,-0.394977 1.716418,-0.704979 0.527362,-0.310002 1.009968,-0.685024 1.447753,-1.124992 l 2.955247,1.229995 1.16417,-2.040013 -2.567168,-1.949995 c 0.09951,-0.279996 0.169153,-0.575014 0.208958,-0.885016 0.0398,-0.310002 0.05971,-0.624975 0.05971,-0.944991 0,-0.320017 -0.0199,-0.634989 -0.05971,-0.944992 -0.0398,-0.310002 -0.109447,-0.605019 -0.208958,-0.885015 L 20.865666,8.2200037 19.701496,6.1799904 16.746249,7.4399911 C 16.308464,6.9799949 15.825858,6.5949957 15.298496,6.2849935 14.771134,5.9749913 14.198983,5.7399861 13.582078,5.5800144 L 13.194032,2.400003 h -2.35821 L 10.417906,5.5800144 C 9.8009999,5.7399861 9.2288496,5.9749913 8.7014877,6.2849935 8.1741258,6.5949957 7.6915522,6.9700172 7.2537343,7.4100215 L 4.2985206,6.1799904 3.1343275,8.2200037 5.7014856,10.139993 c -0.099511,0.300024 -0.1691532,0.600012 -0.2089578,0.9 -0.039805,0.300025 -0.059707,0.620004 -0.059707,0.960013 0,0.320016 0.019902,0.630018 0.059707,0.930006 0.039805,0.299988 0.1094463,0.600013 0.2089578,0.900001 l -2.5671581,1.949995 1.1641931,2.040013 2.9552137,-1.260001 c 0.4378179,0.459997 0.9203915,0.844996 1.4477534,1.154998 0.5273619,0.310002 1.0995122,0.545007 1.7164183,0.704979 z m 1.253747,-5.400003 c 1.154235,0 2.139284,-0.409998 2.955213,-1.229994 0.815929,-0.820033 1.223877,-1.810016 1.223877,-2.97002 0,-1.160005 -0.407948,-2.149987 -1.223877,-2.9699836 -0.815929,-0.8200329 -1.800978,-1.2300311 -2.955213,-1.2300311 -1.174138,0 -2.1641713,0.4099982 -2.9701655,1.2300311 -0.8059614,0.8199966 -1.2089257,1.8099786 -1.2089257,2.9699836 0,1.160004 0.4029643,2.149987 1.2089257,2.97002 0.8059942,0.819996 1.7960275,1.229994 2.9701655,1.229994 z"
     fill="#ffffff"
     id="path1"
     style="stroke-width:0.0346171" />
</svg>
